<mxfile host="Electron" modified="2024-01-28T17:24:01.401Z" agent="Mozilla/5.0 (Macintosh; Intel Mac OS X 10_15_7) AppleWebKit/537.36 (KHTML, like Gecko) draw.io/22.1.21 Chrome/120.0.6099.109 Electron/28.1.0 Safari/537.36" etag="7m7vpLGWQQztrmpznJ5K" version="22.1.21" type="device">
  <diagram name="Page-1" id="OQT_DE3wpmf4-UgS3m58">
    <mxGraphModel dx="954" dy="727" grid="1" gridSize="10" guides="1" tooltips="1" connect="1" arrows="1" fold="1" page="1" pageScale="1" pageWidth="900" pageHeight="1600" math="0" shadow="0">
      <root>
        <mxCell id="0" />
        <mxCell id="1" parent="0" />
        <mxCell id="aAex4qGx4-vmDS7_JbLM-17" style="edgeStyle=orthogonalEdgeStyle;rounded=0;orthogonalLoop=1;jettySize=auto;html=1;entryX=0.5;entryY=0;entryDx=0;entryDy=0;entryPerimeter=0;" parent="1" source="aAex4qGx4-vmDS7_JbLM-1" target="rmFOrZE_fYNKGnQhTPv_-1" edge="1">
          <mxGeometry relative="1" as="geometry">
            <mxPoint x="352.9000000000001" y="320" as="targetPoint" />
          </mxGeometry>
        </mxCell>
        <mxCell id="aAex4qGx4-vmDS7_JbLM-18" value="Update Header buildVersion&lt;br&gt;for the S3 origin&amp;nbsp;" style="edgeLabel;html=1;align=center;verticalAlign=middle;resizable=0;points=[];" parent="aAex4qGx4-vmDS7_JbLM-17" vertex="1" connectable="0">
          <mxGeometry x="-0.0508" y="1" relative="1" as="geometry">
            <mxPoint x="-74" y="-15" as="offset" />
          </mxGeometry>
        </mxCell>
        <mxCell id="aAex4qGx4-vmDS7_JbLM-1" value="" style="shape=image;verticalLabelPosition=bottom;verticalAlign=top;imageAspect=0;image=data:image/svg+xml,PHN2ZyB4bWxucz0iaHR0cDovL3d3dy53My5vcmcvMjAwMC9zdmciIHZpZXdCb3g9IjAgMCA1MDYgNTA2Ij48ZGVmcz48c3R5bGU+LmF7ZmlsbDojZmZmO30uYntmaWxsOiM2Mzk7fTwvc3R5bGU+PC9kZWZzPjx0aXRsZT5nYXRzYnlqczwvdGl0bGU+PHBhdGggZD0iTTQ1MS43OSwyNTNIMzI1LjI5djM2LjE0SDQxMmMtMTIuNjUsNTQuMjItNTIuNDEsOTkuNC0xMDQuODIsMTE3LjQ3TDk5LjM5LDE5OC43OUMxMjEuMDgsMTM1LjU0LDE4Mi41Miw5MC4zNiwyNTMsOTAuMzZjNTQuMjEsMCwxMDMsMjcuMSwxMzMuNzMsNjguNjdsMjcuMTEtMjMuNDljLTM2LjE1LTQ4LjgtOTQtODEuMzMtMTYwLjg0LTgxLjMzLTk0LDAtMTczLjQ5LDY2Ljg3LTE5My4zNiwxNTUuNDJMMjk4LjE4LDQ0OC4xN0MzODQuOTIsNDI2LjQ5LDQ1MS43OSwzNDcsNDUxLjc5LDI1M1pNNTQuMjEsMjU0LjgxYzAsNTAuNiwxOS44OCw5OS4zOSw1Ny44MywxMzcuMzRTMjAwLjU5LDQ1MCwyNDkuMzksNDUwWiIgY2xhc3M9ImEiLz48cGF0aCBkPSJNMjUzLDBDMTEzLjg1LDAsMCwxMTMuODUsMCwyNTNTMTEzLjg1LDUwNiwyNTMsNTA2LDUwNiwzOTIuMTUsNTA2LDI1MywzOTIuMTUsMCwyNTMsMFpNMTEyLDM5NEM3NC4wOSwzNTYsNTQuMjEsMzA1LjQxLDU0LjIxLDI1Ni42MWwxOTcsMTk1LjE4QzIwMC41OSw0NTAsMTUwLDQzMS45MSwxMTIsMzk0Wm0xODQuMzMsNTIuNEw1OS42NCwyMDkuNjNDNzkuNTEsMTIxLjA4LDE1OSw1NC4yMSwyNTMsNTQuMjFjNjYuODYsMCwxMjQuNjksMzIuNTMsMTYwLjg0LDgxLjMzTDM4Ni43MywxNTlDMzU2LDExNy40NiwzMDcuMjEsOTAuMzYsMjUzLDkwLjM2Yy03MC40OCwwLTEzMC4xMSw0NS4xOC0xNTMuNjEsMTA4LjQzTDMwNy4yMSw0MDYuNjFjNTIuNDEtMTguMDcsOTIuMTctNjMuMjUsMTA0LjgyLTExNy40N0gzMjUuMjlWMjUzaDEyNi41QzQ1MS43OSwzNDcsMzg0LjkyLDQyNi40OSwyOTYuMzcsNDQ2LjM2WiIgY2xhc3M9ImIiLz48L3N2Zz4=;" parent="1" vertex="1">
          <mxGeometry x="312.9" y="174" width="80" height="80" as="geometry" />
        </mxCell>
        <mxCell id="aAex4qGx4-vmDS7_JbLM-2" value="S3 Bucket" style="sketch=0;points=[[0,0,0],[0.25,0,0],[0.5,0,0],[0.75,0,0],[1,0,0],[0,1,0],[0.25,1,0],[0.5,1,0],[0.75,1,0],[1,1,0],[0,0.25,0],[0,0.5,0],[0,0.75,0],[1,0.25,0],[1,0.5,0],[1,0.75,0]];outlineConnect=0;fontColor=#232F3E;fillColor=#7AA116;strokeColor=#ffffff;dashed=0;verticalLabelPosition=bottom;verticalAlign=top;align=center;html=1;fontSize=12;fontStyle=0;aspect=fixed;shape=mxgraph.aws4.resourceIcon;resIcon=mxgraph.aws4.s3;" parent="1" vertex="1">
          <mxGeometry x="729.5" y="313" width="94" height="94" as="geometry" />
        </mxCell>
        <mxCell id="aAex4qGx4-vmDS7_JbLM-4" value="" style="edgeStyle=segmentEdgeStyle;endArrow=classic;html=1;curved=0;rounded=0;endSize=8;startSize=8;exitX=1;exitY=0.5;exitDx=0;exitDy=0;" parent="1" source="aAex4qGx4-vmDS7_JbLM-1" target="aAex4qGx4-vmDS7_JbLM-2" edge="1">
          <mxGeometry width="50" height="50" relative="1" as="geometry">
            <mxPoint x="350" y="390" as="sourcePoint" />
            <mxPoint x="400" y="340" as="targetPoint" />
          </mxGeometry>
        </mxCell>
        <mxCell id="aAex4qGx4-vmDS7_JbLM-5" value="SSG Build for both mobile and desktop:&lt;br&gt;[build_number]/mobile&lt;br&gt;[build_number]/desktop&lt;br&gt;Precompress for Gzip and Brotli and Sync Everything" style="edgeLabel;html=1;align=center;verticalAlign=middle;resizable=0;points=[];" parent="aAex4qGx4-vmDS7_JbLM-4" vertex="1" connectable="0">
          <mxGeometry x="-0.1612" y="1" relative="1" as="geometry">
            <mxPoint y="-29" as="offset" />
          </mxGeometry>
        </mxCell>
        <mxCell id="aAex4qGx4-vmDS7_JbLM-8" style="edgeStyle=orthogonalEdgeStyle;rounded=0;orthogonalLoop=1;jettySize=auto;html=1;entryX=0;entryY=0.5;entryDx=0;entryDy=0;" parent="1" source="aAex4qGx4-vmDS7_JbLM-6" target="aAex4qGx4-vmDS7_JbLM-1" edge="1">
          <mxGeometry relative="1" as="geometry" />
        </mxCell>
        <mxCell id="aAex4qGx4-vmDS7_JbLM-9" value="Trigger Build" style="edgeLabel;html=1;align=center;verticalAlign=middle;resizable=0;points=[];" parent="aAex4qGx4-vmDS7_JbLM-8" vertex="1" connectable="0">
          <mxGeometry x="-0.25" y="2" relative="1" as="geometry">
            <mxPoint x="5" y="-8" as="offset" />
          </mxGeometry>
        </mxCell>
        <mxCell id="aAex4qGx4-vmDS7_JbLM-6" value="Website Repo" style="verticalLabelPosition=bottom;html=1;verticalAlign=top;align=center;strokeColor=none;fillColor=#00BEF2;shape=mxgraph.azure.git_repository;" parent="1" vertex="1">
          <mxGeometry x="40" y="194" width="40" height="40" as="geometry" />
        </mxCell>
        <mxCell id="aAex4qGx4-vmDS7_JbLM-10" value="devices" style="sketch=0;outlineConnect=0;gradientColor=none;fontColor=#545B64;strokeColor=none;fillColor=#879196;dashed=0;verticalLabelPosition=bottom;verticalAlign=top;align=center;html=1;fontSize=12;fontStyle=0;aspect=fixed;shape=mxgraph.aws4.illustration_devices;pointerEvents=1" parent="1" vertex="1">
          <mxGeometry x="30" y="324" width="100" height="73" as="geometry" />
        </mxCell>
        <mxCell id="aAex4qGx4-vmDS7_JbLM-12" value="" style="outlineConnect=0;dashed=0;verticalLabelPosition=bottom;verticalAlign=top;align=center;html=1;shape=mxgraph.aws3.lambda_function;fillColor=#F58534;gradientColor=none;" parent="1" vertex="1">
          <mxGeometry x="480" y="317" width="38.34" height="40" as="geometry" />
        </mxCell>
        <mxCell id="aAex4qGx4-vmDS7_JbLM-14" style="edgeStyle=orthogonalEdgeStyle;rounded=0;orthogonalLoop=1;jettySize=auto;html=1;entryX=0;entryY=0.5;entryDx=0;entryDy=0;entryPerimeter=0;exitX=1;exitY=0.25;exitDx=0;exitDy=0;exitPerimeter=0;" parent="1" source="rmFOrZE_fYNKGnQhTPv_-1" target="aAex4qGx4-vmDS7_JbLM-12" edge="1">
          <mxGeometry relative="1" as="geometry">
            <mxPoint x="385.80999999999995" y="336.79999999999995" as="sourcePoint" />
          </mxGeometry>
        </mxCell>
        <mxCell id="aAex4qGx4-vmDS7_JbLM-19" value="Based on the buildVersion and &lt;br&gt;Cloudfront-Is-Mobile-Viewer&lt;br&gt;Update the request URI (prefix)&lt;br&gt;And using Accept-Encoding,&lt;br&gt;add prefix for .gzip/.br" style="text;html=1;align=center;verticalAlign=middle;resizable=0;points=[];autosize=1;strokeColor=none;fillColor=none;" parent="1" vertex="1">
          <mxGeometry x="518.34" y="244" width="190" height="90" as="geometry" />
        </mxCell>
        <mxCell id="aAex4qGx4-vmDS7_JbLM-49" style="edgeStyle=orthogonalEdgeStyle;rounded=0;orthogonalLoop=1;jettySize=auto;html=1;" parent="1" source="aAex4qGx4-vmDS7_JbLM-20" target="aAex4qGx4-vmDS7_JbLM-24" edge="1">
          <mxGeometry relative="1" as="geometry" />
        </mxCell>
        <mxCell id="aAex4qGx4-vmDS7_JbLM-56" value="Updates Redirect Info" style="edgeLabel;html=1;align=center;verticalAlign=middle;resizable=0;points=[];" parent="aAex4qGx4-vmDS7_JbLM-49" vertex="1" connectable="0">
          <mxGeometry x="-0.6811" y="3" relative="1" as="geometry">
            <mxPoint x="14" y="-6" as="offset" />
          </mxGeometry>
        </mxCell>
        <mxCell id="aAex4qGx4-vmDS7_JbLM-53" style="edgeStyle=orthogonalEdgeStyle;rounded=0;orthogonalLoop=1;jettySize=auto;html=1;" parent="1" source="aAex4qGx4-vmDS7_JbLM-20" edge="1">
          <mxGeometry relative="1" as="geometry">
            <mxPoint x="80.20000000000005" y="580" as="targetPoint" />
          </mxGeometry>
        </mxCell>
        <mxCell id="aAex4qGx4-vmDS7_JbLM-54" value="Trigger" style="edgeLabel;html=1;align=center;verticalAlign=middle;resizable=0;points=[];" parent="aAex4qGx4-vmDS7_JbLM-53" vertex="1" connectable="0">
          <mxGeometry x="0.0318" y="1" relative="1" as="geometry">
            <mxPoint as="offset" />
          </mxGeometry>
        </mxCell>
        <mxCell id="aAex4qGx4-vmDS7_JbLM-20" value="" style="shadow=0;dashed=0;html=1;strokeColor=none;fillColor=#4495D1;labelPosition=center;verticalLabelPosition=bottom;verticalAlign=top;align=center;outlineConnect=0;shape=mxgraph.veeam.portal_admin;" parent="1" vertex="1">
          <mxGeometry x="58" y="480" width="44.4" height="48.8" as="geometry" />
        </mxCell>
        <mxCell id="aAex4qGx4-vmDS7_JbLM-21" value="" style="edgeStyle=segmentEdgeStyle;endArrow=classic;html=1;curved=0;rounded=0;endSize=8;startSize=8;" parent="1" source="aAex4qGx4-vmDS7_JbLM-20" target="rmFOrZE_fYNKGnQhTPv_-1" edge="1">
          <mxGeometry width="50" height="50" relative="1" as="geometry">
            <mxPoint x="290" y="520" as="sourcePoint" />
            <mxPoint x="353" y="400" as="targetPoint" />
            <Array as="points">
              <mxPoint x="80" y="460" />
              <mxPoint x="353" y="460" />
            </Array>
          </mxGeometry>
        </mxCell>
        <mxCell id="aAex4qGx4-vmDS7_JbLM-22" value="For Rollback:&lt;br&gt;Update buildVersion" style="edgeLabel;html=1;align=center;verticalAlign=middle;resizable=0;points=[];" parent="aAex4qGx4-vmDS7_JbLM-21" vertex="1" connectable="0">
          <mxGeometry x="-0.1964" y="-2" relative="1" as="geometry">
            <mxPoint y="-18" as="offset" />
          </mxGeometry>
        </mxCell>
        <mxCell id="aAex4qGx4-vmDS7_JbLM-29" style="edgeStyle=orthogonalEdgeStyle;rounded=0;orthogonalLoop=1;jettySize=auto;html=1;entryX=0;entryY=0.5;entryDx=0;entryDy=0;" parent="1" source="aAex4qGx4-vmDS7_JbLM-23" target="aAex4qGx4-vmDS7_JbLM-25" edge="1">
          <mxGeometry relative="1" as="geometry" />
        </mxCell>
        <mxCell id="aAex4qGx4-vmDS7_JbLM-30" value="Run build and deploy pipeline" style="edgeLabel;html=1;align=center;verticalAlign=middle;resizable=0;points=[];" parent="aAex4qGx4-vmDS7_JbLM-29" vertex="1" connectable="0">
          <mxGeometry x="-0.1816" y="-1" relative="1" as="geometry">
            <mxPoint y="-11" as="offset" />
          </mxGeometry>
        </mxCell>
        <mxCell id="aAex4qGx4-vmDS7_JbLM-23" value="Origin Request &lt;br&gt;Interceptor Repo" style="verticalLabelPosition=bottom;html=1;verticalAlign=top;align=center;strokeColor=none;fillColor=#00BEF2;shape=mxgraph.azure.git_repository;" parent="1" vertex="1">
          <mxGeometry x="61" y="583" width="40" height="40" as="geometry" />
        </mxCell>
        <mxCell id="aAex4qGx4-vmDS7_JbLM-24" value="" style="sketch=0;outlineConnect=0;fontColor=#232F3E;gradientColor=none;fillColor=#C925D1;strokeColor=none;dashed=0;verticalLabelPosition=bottom;verticalAlign=top;align=center;html=1;fontSize=12;fontStyle=0;aspect=fixed;pointerEvents=1;shape=mxgraph.aws4.rds_instance;" parent="1" vertex="1">
          <mxGeometry x="751.5" y="480" width="50" height="50" as="geometry" />
        </mxCell>
        <mxCell id="aAex4qGx4-vmDS7_JbLM-28" style="edgeStyle=orthogonalEdgeStyle;rounded=0;orthogonalLoop=1;jettySize=auto;html=1;" parent="1" source="aAex4qGx4-vmDS7_JbLM-25" target="aAex4qGx4-vmDS7_JbLM-12" edge="1">
          <mxGeometry relative="1" as="geometry" />
        </mxCell>
        <mxCell id="aAex4qGx4-vmDS7_JbLM-44" value="Deploy &lt;br&gt;Lambda" style="edgeLabel;html=1;align=center;verticalAlign=middle;resizable=0;points=[];" parent="aAex4qGx4-vmDS7_JbLM-28" vertex="1" connectable="0">
          <mxGeometry x="-0.5028" y="-1" relative="1" as="geometry">
            <mxPoint x="30" y="30" as="offset" />
          </mxGeometry>
        </mxCell>
        <mxCell id="aAex4qGx4-vmDS7_JbLM-25" value="" style="strokeColor=#dddddd;shadow=1;strokeWidth=1;rounded=1;absoluteArcSize=1;arcSize=2;" parent="1" vertex="1">
          <mxGeometry x="417.67" y="574" width="163.33" height="57" as="geometry" />
        </mxCell>
        <mxCell id="aAex4qGx4-vmDS7_JbLM-26" value="Build Lambda&lt;br&gt;Inlined Redirect&lt;br&gt;Data" style="editableCssRules=.*;html=1;fontColor=#999999;shape=image;verticalLabelPosition=middle;verticalAlign=middle;labelPosition=right;align=left;spacingLeft=20;part=1;points=[];imageAspect=0;image=data:image/svg+xml,PHN2ZyB4bWxucz0iaHR0cDovL3d3dy53My5vcmcvMjAwMC9zdmciIHhtbG5zOnY9Imh0dHBzOi8vdmVjdGEuaW8vbmFubyIgd2lkdGg9IjE3LjMyOTk5OTkyMzcwNjA1NSIgaGVpZ2h0PSIxOS42MTAwMDA2MTAzNTE1NjIiIHZpZXdCb3g9IjAgMCAxNy4zMjk5OTk5MjM3MDYwNTUgMTkuNjEwMDAwNjEwMzUxNTYyIj4mI3hhOwk8c3R5bGUgdHlwZT0idGV4dC9jc3MiPiYjeGE7CS5zdDB7ZmlsbDojNDI4NWY0O30mI3hhOwkuc3Qxe2ZpbGw6IzY2OWRmNjt9JiN4YTsJLnN0MntmaWxsOiNhZWNiZmE7fSYjeGE7CTwvc3R5bGU+JiN4YTsJPHBhdGggY2xhc3M9InN0MCIgZD0iTTEyLjE4IDcuOThMMTEgNy4yOWwtMy41MiA2LjEgMS4xOC42OCAzLjUyLTIuMDN6IiBmaWxsPSIjNDI4NWY0Ii8+JiN4YTsJPHBhdGggY2xhc3M9InN0MSIgZD0iTTYuMzIgMTIuNzJsMy41My02LjA5LTEuMTktLjY5LTMuNTIgMi4wNHY0LjA2eiIgZmlsbD0iIzY2OWRmNiIvPiYjeGE7CTxwYXRoIGNsYXNzPSJzdDIiIGQ9Ik0zLjc1IDcuOThMMCA1LjgxdjkuMmw3Ljk3IDQuNnYtNC4zM2wtNC4yMi0yLjQ0em05LjEzLTEuMmwzLjc2LTIuMTdMOC42NiAwIC42OCA0LjYxbDMuNzYgMi4xNyA0LjIyLTIuNDR6TTkuMzUgMTkuNjFsNy45OC00LjZ2LTkuMmwtMy43NiAyLjE3djQuODZsLTQuMjIgMi40NHoiIGZpbGw9IiNhZWNiZmEiLz4mI3hhOzwvc3ZnPg==;" parent="aAex4qGx4-vmDS7_JbLM-25" vertex="1">
          <mxGeometry width="26" height="30" relative="1" as="geometry">
            <mxPoint x="17" y="15" as="offset" />
          </mxGeometry>
        </mxCell>
        <mxCell id="aAex4qGx4-vmDS7_JbLM-31" value="" style="endArrow=classic;startArrow=classic;html=1;rounded=0;entryX=0;entryY=0.5;entryDx=0;entryDy=0;entryPerimeter=0;" parent="1" source="aAex4qGx4-vmDS7_JbLM-10" target="rmFOrZE_fYNKGnQhTPv_-1" edge="1">
          <mxGeometry width="50" height="50" relative="1" as="geometry">
            <mxPoint x="180" y="410" as="sourcePoint" />
            <mxPoint x="320" y="360" as="targetPoint" />
          </mxGeometry>
        </mxCell>
        <mxCell id="aAex4qGx4-vmDS7_JbLM-37" style="edgeStyle=orthogonalEdgeStyle;rounded=0;orthogonalLoop=1;jettySize=auto;html=1;entryX=0;entryY=0.25;entryDx=0;entryDy=0;entryPerimeter=0;" parent="1" source="aAex4qGx4-vmDS7_JbLM-12" target="aAex4qGx4-vmDS7_JbLM-2" edge="1">
          <mxGeometry relative="1" as="geometry" />
        </mxCell>
        <mxCell id="aAex4qGx4-vmDS7_JbLM-43" style="edgeStyle=orthogonalEdgeStyle;rounded=0;orthogonalLoop=1;jettySize=auto;html=1;exitX=0;exitY=0.75;exitDx=0;exitDy=0;exitPerimeter=0;entryX=1;entryY=0.75;entryDx=0;entryDy=0;entryPerimeter=0;" parent="1" source="aAex4qGx4-vmDS7_JbLM-2" target="rmFOrZE_fYNKGnQhTPv_-1" edge="1">
          <mxGeometry relative="1" as="geometry">
            <mxPoint x="385.80999999999995" y="383.20000000000005" as="targetPoint" />
          </mxGeometry>
        </mxCell>
        <mxCell id="aAex4qGx4-vmDS7_JbLM-51" value="" style="edgeStyle=segmentEdgeStyle;endArrow=classic;html=1;curved=0;rounded=0;endSize=8;startSize=8;entryX=1.006;entryY=0.368;entryDx=0;entryDy=0;entryPerimeter=0;" parent="1" source="aAex4qGx4-vmDS7_JbLM-24" target="aAex4qGx4-vmDS7_JbLM-25" edge="1">
          <mxGeometry width="50" height="50" relative="1" as="geometry">
            <mxPoint x="790" y="620" as="sourcePoint" />
            <mxPoint x="700" y="590" as="targetPoint" />
            <Array as="points">
              <mxPoint x="777" y="595" />
            </Array>
          </mxGeometry>
        </mxCell>
        <mxCell id="aAex4qGx4-vmDS7_JbLM-52" value="Read Redirects" style="edgeLabel;html=1;align=center;verticalAlign=middle;resizable=0;points=[];" parent="aAex4qGx4-vmDS7_JbLM-51" vertex="1" connectable="0">
          <mxGeometry x="0.291" y="-3" relative="1" as="geometry">
            <mxPoint as="offset" />
          </mxGeometry>
        </mxCell>
        <mxCell id="aAex4qGx4-vmDS7_JbLM-55" value="Request origin interceptor" style="text;html=1;align=center;verticalAlign=middle;resizable=0;points=[];autosize=1;strokeColor=none;fillColor=none;" parent="1" vertex="1">
          <mxGeometry x="510" y="338" width="160" height="30" as="geometry" />
        </mxCell>
        <mxCell id="rmFOrZE_fYNKGnQhTPv_-1" value="" style="sketch=0;points=[[0,0,0],[0.25,0,0],[0.5,0,0],[0.75,0,0],[1,0,0],[0,1,0],[0.25,1,0],[0.5,1,0],[0.75,1,0],[1,1,0],[0,0.25,0],[0,0.5,0],[0,0.75,0],[1,0.25,0],[1,0.5,0],[1,0.75,0]];outlineConnect=0;fontColor=#232F3E;fillColor=#8C4FFF;strokeColor=#ffffff;dashed=0;verticalLabelPosition=bottom;verticalAlign=top;align=center;html=1;fontSize=12;fontStyle=0;aspect=fixed;shape=mxgraph.aws4.resourceIcon;resIcon=mxgraph.aws4.cloudfront;" vertex="1" parent="1">
          <mxGeometry x="306.9" y="315" width="91" height="91" as="geometry" />
        </mxCell>
        <mxCell id="rmFOrZE_fYNKGnQhTPv_-2" value="Cloudfront" style="text;html=1;align=center;verticalAlign=middle;resizable=0;points=[];autosize=1;strokeColor=none;fillColor=none;" vertex="1" parent="1">
          <mxGeometry x="350" y="406" width="80" height="30" as="geometry" />
        </mxCell>
      </root>
    </mxGraphModel>
  </diagram>
</mxfile>
